# xmcd CD database file
#
# Track frame offsets:
#	150
#	10586
#	23130
#	31667
#	45025
#	60772
#	74780
#	88769
#	103879
#	116613
#	130479
#	148482
#	161037
#
# Disc length: 2339 seconds
#
# Revision: 2
# Processed by: cddbd v1.5.2PL0 Copyright (c) Steve Scherf et al.
# Submitted via: ACXtractor (MTCDDB.DLL V2003.12.21)
#
DISCID=ac09210d
DTITLE=460 Martin Cuffe - Amy's Eyes
DYEAR=2004
DGENRE=Country
TTITLE0=Home Is Where The Heart Is
TTITLE1=From The Window Up Above
TTITLE2=If It's Lonesome At Your Table 
TTITLE3=Amy's Eyes
TTITLE4=On The 14th Day Of February
TTITLE5=Hand That Rocks The Cradle
TTITLE6=When Love Comes Around
TTITLE7=What She Don't Know Won't Hurt Her
TTITLE8=What God Has Joined Together
TTITLE9=House Of The Rising sun
TTITLE10=The Farmers Daughter
TTITLE11=No More Lonely
TTITLE12=Days Of Wine And Roses
EXTD=YEAR: 2004 ID3G:   2
EXTT0=
EXTT1=
EXTT2=
EXTT3=
EXTT4=
EXTT5=
EXTT6=
EXTT7=
EXTT8=
EXTT9=
EXTT10=
EXTT11=
EXTT12=
PLAYORDER=
